<svg xmlns="http://www.w3.org/2000/svg" xmlns:xlink="http://www.w3.org/1999/xlink" width="24"
    height="24" viewBox="0 0 100 100">
    <defs>
        <linearGradient id="a" x1="0.5" x2="0.5" y2="1" gradientUnits="objectBoundingBox">
            <stop offset="0" stop-color="#060517" />
            <stop offset="1" stop-color="#5219a3" />
        </linearGradient>
    </defs>
    <g transform="translate(-130 -101)">
        <rect width="100" height="100" rx="30" transform="translate(130 101)" fill="url(#a)" />
        <g transform="translate(144.102 124.434)">
            <path
                d="M38.44,16.2q0,.149.139.1L65.707,7.58q.191-.062.191.139v32.25a.162.162,0,0,1-.162.162H50.347a.145.145,0,0,1-.162-.165V25.125a.147.147,0,0,0-.172-.165l-11.038.188a.107.107,0,0,0-.1.107V46.316a.113.113,0,0,1-.113.113H22.73a.182.182,0,0,1-.207-.2l0-13.729a.135.135,0,0,0-.152-.152H6.1q-.363,0-.062-.2c.324-.217.729-.366,1.06-.593q5.6-3.858,10.208-7.378,8.03-6.137,16.1-12.053a57.033,57.033,0,0,1,4.869-3.206q.169-.1.169.1Z"
                transform="translate(0 0)" fill="#fff" />
        </g>
    </g>
</svg>