<svg xmlns="http://www.w3.org/2000/svg" width="105.79" height="24" viewBox="0 0 204.982 46.501"><g transform="translate(-284 -452.999)"><g transform="translate(-2 169.5)"><path d="M-77.1-25.7a9.05,9.05,0,0,1,6.775,2.75,10.438,10.438,0,0,1,2.675,7.6V0H-74.1V-14.55a5.122,5.122,0,0,0-1.35-3.825,4.917,4.917,0,0,0-3.6-1.325,5.31,5.31,0,0,0-4,1.55,6.446,6.446,0,0,0-1.5,4.65V0H-91V-25h6.45v2.8Q-82.2-25.7-77.1-25.7Zm31.45.7h6.45V0h-6.45V-2.8Q-48,.7-53.1.7a9.05,9.05,0,0,1-6.775-2.75,10.438,10.438,0,0,1-2.675-7.6V-25h6.45v14.55a5.122,5.122,0,0,0,1.35,3.825A4.917,4.917,0,0,0-51.15-5.3a5.31,5.31,0,0,0,4-1.55,6.446,6.446,0,0,0,1.5-4.65Zm26.9-.7a11.381,11.381,0,0,1,8.625,3.825A13.218,13.218,0,0,1-6.55-12.5a13.218,13.218,0,0,1-3.575,9.375A11.381,11.381,0,0,1-18.75.7a9.676,9.676,0,0,1-8.1-3.65V10H-33.3V-25h6.45v2.95A9.676,9.676,0,0,1-18.75-25.7ZM-24.9-7.4a6.707,6.707,0,0,0,4.95,1.95,6.745,6.745,0,0,0,4.975-1.975A6.87,6.87,0,0,0-13-12.5a6.87,6.87,0,0,0-1.975-5.075A6.745,6.745,0,0,0-19.95-19.55a6.662,6.662,0,0,0-4.95,1.975A6.918,6.918,0,0,0-26.85-12.5,7,7,0,0,0-24.9-7.4ZM-2,0V-36.5H4.45V0ZM29.35-25H35.8V0H29.35V-2.95A9.816,9.816,0,0,1,21.2.7a11.328,11.328,0,0,1-8.575-3.825A13.218,13.218,0,0,1,9.05-12.5a13.218,13.218,0,0,1,3.575-9.375A11.328,11.328,0,0,1,21.2-25.7a9.816,9.816,0,0,1,8.15,3.65ZM17.45-7.4A6.707,6.707,0,0,0,22.4-5.45a6.745,6.745,0,0,0,4.975-1.975A6.87,6.87,0,0,0,29.35-12.5a6.87,6.87,0,0,0-1.975-5.075A6.745,6.745,0,0,0,22.4-19.55a6.662,6.662,0,0,0-4.95,1.975A6.918,6.918,0,0,0,15.5-12.5,7,7,0,0,0,17.45-7.4ZM53.55.7a12.745,12.745,0,0,1-9.425-3.8,12.812,12.812,0,0,1-3.775-9.4,12.812,12.812,0,0,1,3.775-9.4,12.745,12.745,0,0,1,9.425-3.8,12.956,12.956,0,0,1,6.65,1.75,11.636,11.636,0,0,1,4.55,4.7L59.2-16a5.659,5.659,0,0,0-2.275-2.45,6.611,6.611,0,0,0-3.425-.9,6.462,6.462,0,0,0-4.8,1.925A6.716,6.716,0,0,0,46.8-12.5a6.653,6.653,0,0,0,1.9,4.875A6.462,6.462,0,0,0,53.5-5.7a6.856,6.856,0,0,0,3.475-.875A5.511,5.511,0,0,0,59.25-9l5.6,3.2A12.523,12.523,0,0,1,60.2-1.075,12.815,12.815,0,0,1,53.55.7ZM73.3-9.85q1.3,4.7,7.05,4.7a6.6,6.6,0,0,0,5.6-2.5l5.2,3Q87.45.7,80.25.7A13.449,13.449,0,0,1,70.3-3.05a12.812,12.812,0,0,1-3.75-9.45,12.926,12.926,0,0,1,3.7-9.425,12.725,12.725,0,0,1,9.5-3.775,11.92,11.92,0,0,1,9.075,3.8A13.2,13.2,0,0,1,92.4-12.5a15.1,15.1,0,0,1-.25,2.65Zm-.1-5H85.95a6.044,6.044,0,0,0-2.275-3.8A6.521,6.521,0,0,0,79.75-19.9a6.785,6.785,0,0,0-4.3,1.325A6.332,6.332,0,0,0,73.2-14.85Z" transform="translate(377 320)"/></g><g transform="translate(461.47 445.434)"><path d="M17.621,10.677q0,.054.05.037l9.772-3.144q.069-.022.069.05V19.238a.058.058,0,0,1-.058.058H21.91a.052.052,0,0,1-.058-.06V13.891a.053.053,0,0,0-.062-.06l-3.976.068a.039.039,0,0,0-.037.039v7.587a.041.041,0,0,1-.041.041H11.961a.066.066,0,0,1-.075-.074V16.546a.049.049,0,0,0-.055-.055H5.97q-.131,0-.022-.072c.117-.078.263-.132.382-.214q2.016-1.39,3.677-2.658,2.893-2.211,5.8-4.342A20.545,20.545,0,0,1,17.56,8.051q.061-.036.061.035Z" transform="translate(0 0)"/></g></g></svg>